<svg viewBox="0 0 400 400" xmlns="http://www.w3.org/2000/svg">
  <!-- Background -->
  <rect width="400" height="400" fill="#F5F3F0"/>
  
  <!-- Educational Icons Background -->
  <g opacity="0.3" stroke="#B8A082" stroke-width="2" fill="none">
    <!-- Graduation Cap and Books -->
    <g transform="translate(50, 50)">
      <rect x="0" y="15" width="30" height="20" rx="2"/>
      <rect x="5" y="10" width="20" height="15" rx="2"/>
      <polygon points="10,5 20,5 25,0 5,0"/>
      <circle cx="25" cy="2" r="2"/>
    </g>
    
    <!-- Calculator -->
    <g transform="translate(320, 80)">
      <rect x="0" y="0" width="25" height="35" rx="3"/>
      <rect x="3" y="3" width="19" height="8" rx="1"/>
      <circle cx="7" cy="16" r="1.5"/>
      <circle cx="12" cy="16" r="1.5"/>
      <circle cx="17" cy="16" r="1.5"/>
      <circle cx="7" cy="21" r="1.5"/>
      <circle cx="12" cy="21" r="1.5"/>
      <circle cx="17" cy="21" r="1.5"/>
      <circle cx="7" cy="26" r="1.5"/>
      <circle cx="12" cy="26" r="1.5"/>
      <circle cx="17" cy="26" r="1.5"/>
    </g>
    
    <!-- Pencil -->
    <g transform="translate(320, 280)">
      <rect x="0" y="0" width="4" height="30" rx="2"/>
      <polygon points="0,30 4,30 2,35"/>
      <rect x="0" y="0" width="4" height="5" fill="#B8A082"/>
    </g>
    
    <!-- Books -->
    <g transform="translate(60, 320)">
      <rect x="0" y="0" width="15" height="20" rx="2"/>
      <rect x="12" y="2" width="15" height="18" rx="2"/>
      <rect x="24" y="4" width="15" height="16" rx="2"/>
    </g>
    
    <!-- Chart -->
    <g transform="translate(80, 80)">
      <polyline points="0,25 5,20 10,15 15,10 20,5"/>
      <rect x="0" y="25" width="20" height="2"/>
      <rect x="0" y="0" width="2" height="27"/>
    </g>
  </g>
  
  <!-- Main Tree -->
  <g transform="translate(200, 200)">
    <!-- Roots -->
    <g stroke="#8B4513" stroke-width="3" fill="none">
      <path d="M0,80 Q-15,90 -25,100 Q-35,110 -45,115"/>
      <path d="M0,80 Q-8,95 -15,110 Q-20,120 -30,125"/>
      <path d="M0,80 Q8,95 15,110 Q20,120 30,125"/>
      <path d="M0,80 Q15,90 25,100 Q35,110 45,115"/>
      <path d="M0,80 Q-5,100 -10,120"/>
      <path d="M0,80 Q5,100 10,120"/>
    </g>
    
    <!-- Trunk -->
    <rect x="-8" y="20" width="16" height="60" fill="#8B4513" rx="8"/>
    <rect x="-6" y="25" width="12" height="50" fill="#A0522D" rx="6"/>
    
    <!-- Tree Crown -->
    <g>
      <!-- Main foliage circles -->
      <circle cx="-25" cy="-10" r="18" fill="#228B22"/>
      <circle cx="25" cy="-10" r="18" fill="#32CD32"/>
      <circle cx="-15" cy="-35" r="16" fill="#228B22"/>
      <circle cx="15" cy="-35" r="16" fill="#32CD32"/>
      <circle cx="0" cy="-45" r="20" fill="#228B22"/>
      <circle cx="-30" cy="10" r="15" fill="#32CD32"/>
      <circle cx="30" cy="10" r="15" fill="#228B22"/>
      <circle cx="0" cy="5" r="22" fill="#32CD32"/>
      
      <!-- Additional foliage for fullness -->
      <circle cx="-10" cy="-15" r="14" fill="#228B22"/>
      <circle cx="10" cy="-15" r="14" fill="#32CD32"/>
      <circle cx="-20" cy="15" r="12" fill="#228B22"/>
      <circle cx="20" cy="15" r="12" fill="#32CD32"/>
    </g>
    
    <!-- Hanging Elements (representing knowledge/wisdom) -->
    <g stroke="#654321" stroke-width="2" fill="none">
      <line x1="-20" y1="5" x2="-20" y2="25"/>
      <line x1="-10" y1="0" x2="-10" y2="20"/>
      <line x1="0" y1="-5" x2="0" y2="15"/>
      <line x1="10" y1="0" x2="10" y2="20"/>
      <line x1="20" y1="5" x2="20" y2="25"/>
      <line x1="-25" y1="10" x2="-25" y2="30"/>
      <line x1="25" y1="10" x2="25" y2="30"/>
    </g>
  </g>
  
  <!-- EduDisha Text -->
  <g transform="translate(200, 320)">
    <text x="0" y="0" text-anchor="middle" font-family="serif" font-size="36" font-weight="bold" fill="#B22222">
      eduदिशा
    </text>
  </g>
</svg>